<svg xmlns="http://www.w3.org/2000/svg" version="1.1" width="600px" height="600px" viewBox="0 0 200 200" style="overflow:hidden!important;"><g id="svga-group-wrapper"><g id="svga-group-backs-single"><path id="SvgjsPath4680" d="M0 0h200v200H0V0z" fill="#ecf0f1" stroke-width="none" opacity="1"></path></g><g id="svga-group-humanwrap-move" transform="matrix(1,0,0,1,0,-4)"><g id="svga-group-humanwrap"><g id="svga-group-hair-back-move" transform="matrix(1,0,0,1,0,0)"><g id="svga-group-hair-back"></g></g><g id="svga-group-humanbody-back"><path id="SvgjsPath4633" d="M180.8 184.9c-2.3-3.4-38.9-17.8-38.9-17.8l-13.4-5.2-5.6-68.8H76.8L71.3 162l-13.4 5.2S21.4 181.6 19 185c-2.3 3.4-3.3 14.9-3.3 14.9V219h168.5v-19.2c-.1.1-1-11.5-3.4-14.9z" fill="#f0c7b1" stroke-width="none" opacity="1" stroke="none"></path></g><g id="svga-group-chinshadow-single"><path id="SvgjsPath4827" d="M94.3 163.2s17.4.7 30.2-15c.96-1.2 1.83-2.36 2.64-3.5l-4.2-51.6H76.82l-4.96 62.4c11.08 8.16 22.44 7.7 22.44 7.7z" fill="#d19271" stroke-width="none" opacity="1" stroke="none"></path></g><g id="svga-group-humanbody-front"><path id="SvgjsPath4634" d="M184.5 219c-.1-6.4-.1-12.8-.1-19.2l-.3-.1s.1-.1.2 0c.1 0 .1.1.1.1v-.4l-.1-.5-.1-.9-.2-1.9c-.2-1.3-.4-2.5-.6-3.8-.2-1.3-.5-2.5-.9-3.8-.4-1.2-.8-2.5-1.5-3.6-.8-.9-1.9-1.5-2.9-2.1-1-.6-2.1-1.1-3.2-1.7-2.1-1.1-4.3-2.1-6.5-3.1-4.4-2-8.7-3.9-13.1-5.7-4.4-1.9-8.8-3.7-13.2-5.5l-13-5.2-1.2-16.9c-.4-5.7-.9-11.5-1.3-17.2l-1.3-17.2-1.5-17.3-.1-.8h-.8c-7.7 0-15.4.1-23.1.1l-23.1.2h-.5v.5L75 110.2l-1.3 17.2c-.8 11.4-1.8 22.8-2.8 34.2-5.6 2.1-11.2 4.2-16.7 6.4-5.6 2.2-11.2 4.5-16.8 6.9-2.8 1.2-5.6 2.4-8.3 3.6-2.8 1.3-5.5 2.5-8.2 4.1-.7.4-1.3.8-2 1.4-.2.1-.4.4-.5.6l-.3.6c-.2.4-.4.7-.5 1.1-.6 1.5-1 3-1.3 4.5-.6 3-1.1 6-1.4 9.1l-.1 19.1v.9h.9l42.1.1H100c14 0 28.1-.1 42.1-.2l42.1-.5h.3v-.3zm-84.5-1-42.1-.1-41.2.1-.1-18.1c.3-3 .6-5.9 1.2-8.9.3-1.4.6-2.9 1.1-4.2.1-.3.3-.7.4-.9l.2-.4.3-.3c.5-.4 1.1-.8 1.8-1.2 2.5-1.5 5.3-2.8 8-4.1 2.7-1.3 5.5-2.5 8.2-3.7 5.5-2.4 11.1-4.8 16.7-7.1s11.2-4.5 16.9-6.7l.2-.1v-.2c.9-11.5 1.7-23 2.7-34.4l1.4-17.2 1.5-16.7 22.6.2c7.4.1 14.8.1 22.3.1l1.3 16.4 1.5 17.2c.5 5.7 1 11.5 1.5 17.2l1.6 17.2v.3l.3.1 13.4 5c4.4 1.7 8.9 3.4 13.3 5.2 4.4 1.8 8.8 3.7 13.2 5.6 2.2 1 4.3 2 6.5 3 1.1.5 2.1 1.1 3.2 1.6 1 .6 2.1 1.2 2.9 2 .7 1.1 1.1 2.3 1.4 3.5.3 1.2.6 2.5.8 3.7.2 1.3.4 2.5.6 3.8l.2 1.9.1.9.1.5v.4c0 6.3 0 12.6-.1 18.9l-41.8-.5c-14 .1-28.1 0-42.1 0z" fill="#c27b55" stroke-width="none" opacity="1" stroke="none"></path><path id="SvgjsPath4635" d="M125.1 142.4s-1.8 23-9.1 32.9c0 0 7.9-25 9.1-32.9zm-34.5 16s5 7.9 11.5 10.1c0 0-9.5 2.2-11.5-10.1zM73.4 140c6.7 25.6 6.7 25.6 8.5 30.7 0 0 .4-12.6-8.5-30.7z" fill="#d19271" stroke-width="none" opacity="1" stroke="none"></path></g><g id="svga-group-clothes-single"><path id="SvgjsPath10364" d="M61.8 186.6s14.4 11.8 17.6 14.6c3.2 2.8 21.3 12 21.3 12s19.2-9.9 22.4-12.5c3.2-2.6 14.4-17.4 14.4-17.4V220H66.4l-4.6-33.4z" fill="#efefef" stroke-width="none" opacity="1"></path><path id="SvgjsPath10365" d="M67 148.7s-7.2 5.3-11 8.6-9.9 6.6-9.9 6.6l2.9 1.6s-5.5 3.2-10.9 4.8c-5.5 1.6-20.1 5.2-21.1 5.7s-2.3 2.9-2.3 2.9-4.4.9-4.9 11.1c-.6 10.2-1.3 30-1.3 30h64.1s-5.8-35.1-6.3-39.2c0-.4 1.2-16.6 1.2-18 0-1 4.4-11.7 4.3-15.4-.1-1.5-4.8 1.3-4.8 1.3zm66 0s7.2 5.3 11 8.6 9.9 6.6 9.9 6.6l-2.9 1.6s5.5 3.2 10.9 4.8c5.5 1.6 20.1 5.2 21.1 5.7s2.3 2.9 2.3 2.9 4.4.9 4.9 11.1 1.3 29.9 1.3 29.9h-64.1s5.8-35.1 6.3-39.2c0-.4-1.1-16.6-1.1-18 0-1-3.5-12.8-3.7-15.9-.1-1.2 4.1 1.9 4.1 1.9z" fill="#386e77" stroke-width="none" opacity="1"></path><path id="SvgjsPath10366" d="M138.2 164.1s4.9 11.3 6.3 13.8c1.4 2.6 12.2 10.8 12.2 10.8s-15.5 12.9-15.7 14.5c-.2 1.6-3.1 11.7-3.1 11.7l4.2-9.9s6.6-5.6 8.2-6.6 14.1-9.9 14.1-9.9-16.2-11-17.8-12.7c-1.6-1.4-8.4-11.7-8.4-11.7zm26.3 9.6c-3.5-.9-10.1-4.2-12.7-5.6 0 0 8 5.4 10.6 6.8 2.6 1.4 15.5 3.8 15.5 4.5 0 .7-4 5.2-4.9 7.5-.9 2.4-.9 9.1-.9 9.1s1.9-5.9 3.1-8.9 7.7-7.3 7.7-7.3 0-1.6-.9-2.6-14-2.6-17.5-3.5zm24.1 12.9c-.2-2.6-2.1-4.5-3.8-5.2 0 0 .9 1.6 1.2 2.6s.7 11.5.7 15.9 3.1 16.9 3.1 16.9-.9-27.6-1.2-30.2zM65.5 161.7c-.5 5.4-2.6 17.6-3.5 21.4-.9 3.8-.2 18.1-.2 18.1s.7-12.7 1.9-15.5c1.2-2.8 2.6-10.3 2.4-12.4-.4-2.2-.6-11.6-.6-11.6zm-43.1 14.5c-1.6.4-4.3 1.2-5.1 2.2 0 0 0 1.4 7.5-.8 5.3-1.5 14.7-5.8 19.7-8.2-6.9 2.7-20.8 6.5-22.1 6.8zm22.1-6.8c1.6-.6 2.9-1.2 3.5-1.6-.1 0-1.4.6-3.5 1.6zm-2.1 22.9c-2.2-1-5.7-2.4-5.7-2.4 4.1 1.8 21.2 14.6 21.2 14.6l6.3 13.8s-4.5-14.6-5.5-15.5c-.9-1-14.1-9.5-16.3-10.5z" fill="#4d7e86" stroke-width="none" opacity="1"></path><path id="SvgjsPath10367" d="M190.8 190.1c-.5-9.2-4.1-11.1-5.1-11.4-.4-.6-1.4-2.5-2.4-2.9-.5-.3-3.8-1.1-9.1-2.5-4.4-1.1-9.3-2.4-12-3.2-4.1-1.3-8.4-3.4-10.1-4.4l2.9-1.7-.8-.4c-.1 0-6.1-3.3-9.8-6.5-3.8-3.3-10.9-8.6-11-8.6l-.8-.6-4.8-2.4 1.1 16.4 3.1 1.2c0 1.1.4 6.1.7 10.5.2 3.5.5 7 .5 7.3-.1 1.2-.7 4.9-1.4 9.7-.6.8-1.2 1.5-1.8 2.2-1.3 1.6-2.6 3.1-3.9 4.6-.7.8-1.3 1.5-2 2.2-.3.4-.7.7-1.1 1-.4.3-.8.6-1.2.8-3.4 2.1-7 4-10.5 5.9-3.5 1.9-7 3.7-10.5 5.5-3.4-1.7-6.9-3.5-10.3-5.3-1.7-.9-3.5-1.9-5.2-2.9-1.7-1-3.4-1.9-5-3.1L68.5 192c-.9-5.4-1.6-9.9-1.7-11.1 0-.3.2-3.9.5-7.3.3-4.4.6-8.9.7-10.2l3.1-1.4 1.3-15.9-5 1.7-.8.6c-.1.1-7.2 5.4-11 8.6-3.7 3.2-9.8 6.5-9.8 6.5l-.8.4 2.9 1.7c-1.7.9-5.9 3.1-10 4.4-2.7.8-7.6 2.1-12 3.2-5.3 1.4-8.6 2.2-9.1 2.5-1 .5-2.1 2.3-2.4 2.9-1 .4-4.6 2.2-5.1 11.4-.6 10.1-1.3 29.8-1.3 30v.5h184.1v-.5c-.1-.2-.8-19.9-1.3-29.9zM30.4 219.5c-.1-3.5-.3-6.9-.9-10.4-.7-3.7-1.4-7.4-2.3-11-.5-1.8-.9-3.6-1.5-5.4-.6-1.8-1.2-3.6-2.2-5.2-1.1-1.6-2.3-3-3.6-4.4-.6-.7-1.3-1.4-2-2-.7-.6-1.3-1.4-2.2-1.8.4.2.7.6 1 .9.3.3.6.7.9 1l1.8 2.1c1.2 1.4 2.4 2.9 3.3 4.5.9 1.6 1.5 3.4 2 5.1.5 1.8 1 3.6 1.4 5.4.9 3.6 1.6 7.3 2.5 10.9.4 1.8.7 3.7.9 5.5.4 1.6.6 3.2.9 4.8H9c.1-3.2.8-20.3 1.2-29.4.5-9.6 4.5-10.6 4.6-10.6l.2-.1.1-.2c.5-.9 1.4-2.4 2.1-2.7.5-.2 4.8-1.4 8.9-2.4 4.4-1.1 9.4-2.4 12.1-3.2 4.9-1.5 9.8-4.2 10.8-4.8.6.4 1.2.7 1.8 1.1l2.5 1.5c.4.2.8.5 1.2.8l.6.3c-2.1 2.2-4.3 4.2-6.7 6l-8.4 6.1c-2.8 2.1-5.6 4.1-8.4 6.2l-1.1.8 1.2.8 6.1 4.1 6.1 4.1 6.2 4.1c1 .7 2.1 1.4 3 2l2.8 2.2c1.2 2.3 2.3 4.6 3.5 6.9l3.3 6.3H30.4zm32.4 0c-.9-2.2-1.8-4.4-2.7-6.7-1-2.4-2-4.9-3.1-7.3v-.1l-.1-.1c-.9-.8-1.8-1.7-2.8-2.5-1-.8-2-1.5-3-2.2-2-1.4-4-2.8-6-4.3s-4-2.8-6.1-4.2c-1.7-1.1-3.3-2.3-5-3.4 2.4-1.8 4.8-3.6 7.2-5.5 2.7-2.1 5.5-4.2 8.2-6.4 2.8-2.2 5.2-4.8 7.4-7.5s4.3-5.5 6-8.5c-2.1 2.7-4.4 5.4-6.8 7.9-.2.3-.5.5-.7.8-.2-.1-.4-.3-.6-.4-.4-.3-.7-.7-1.1-1-.8-.6-1.6-1.2-2.4-1.7-.8-.5-1.6-1.1-2.5-1.6l-1.2-.6-.6-.4c1.8-1 6.2-3.6 9.2-6.2 3-2.6 10.2-8 10.2-8l4.1-2.1s-3.7 14.6-3.7 15.3c0 .8-.4 5.9-.7 10.5-.4 5.7-.5 7.3-.5 7.5 0 .1 0 .3.1.4-.2.6-.4 1.2-.5 1.9l-.9 3.9c-.3 1.3-.5 2.6-.8 3.9-.2 1.3-.5 2.6-.7 3.9-.1 2.3-.2 4.5-.1 6.8.4-2.2.7-4.5 1-6.7.3-1.3.5-2.6.8-3.9.2-1.3.5-2.6.7-3.9l.6-3.9c0-.2.1-.5.1-.7 1.1 7.5 5.2 32.6 6 36.9l-9 .1zm57 0H84.2c-3.7 0-7.4 0-11.2.1-.4-2.4-2.8-16.6-4.4-27.2.8.7 1.6 1.4 2.4 2 3 2.6 5.9 5.1 8.9 7.6 1.6 1.2 3.3 2.2 5 3.2 1.7 1 3.4 1.9 5.2 2.9 3.5 1.9 7 3.7 10.5 5.5l.2.1.2-.1c3.6-1.9 7.1-3.7 10.7-5.7 3.5-1.9 7.1-3.9 10.4-6.1l1.2-.9c.4-.4.8-.7 1.1-1.1.7-.7 1.4-1.5 2-2.3 1.3-1.5 2.6-3.1 3.8-4.7.5-.6.9-1.1 1.4-1.7-1.7 10.7-4.2 25.9-4.7 28.4h-7.1zm8.2 0c.7-4.3 4.9-29.4 6-36.9 0 .2.1.5.1.7l.6 3.9c.2 1.3.5 2.6.7 3.9.3 1.3.5 2.6.8 3.9.2 2.2.6 4.5 1 6.7.1-2.3 0-4.6-.1-6.8-.2-1.3-.4-2.6-.7-3.9-.2-1.3-.5-2.6-.8-3.9l-.9-3.9c-.1-.6-.3-1.2-.5-1.9 0-.2 0-.3.1-.4 0-.2-.1-1.8-.5-7.5-.3-4.6-.7-9.8-.7-10.6 0-.9-3.7-15.8-3.7-15.8l4.2 2.6s7.2 5.4 10.2 8c3 2.6 7.4 5.2 9.2 6.2l-.6.4-1.2.6c-.9.5-1.7 1-2.5 1.6-.8.6-1.6 1.1-2.4 1.7-.4.3-.7.7-1.1 1-.2.2-.4.3-.6.4-.2-.2-.5-.5-.7-.8-2.4-2.5-4.6-5.2-6.8-7.9 1.8 3 3.9 5.8 6.1 8.5 2.2 2.7 4.6 5.3 7.4 7.5 2.7 2.2 5.5 4.3 8.2 6.4 2.4 1.9 4.8 3.7 7.2 5.5-1.7 1.1-3.3 2.2-5 3.4-2 1.4-4.1 2.8-6.1 4.2-2 1.4-4 2.8-6 4.3-1 .7-2 1.4-3 2.2-.9.8-1.9 1.6-2.8 2.5l-.1.1-.1.1c-1 2.4-2.1 4.9-3.1 7.3l-2.7 6.6-9.1.1zm41.7 0c.2-1.6.4-3.1.6-4.7.3-1.9.5-3.7.9-5.5.9-3.6 1.6-7.3 2.5-10.9.4-1.8.9-3.6 1.4-5.4s1.1-3.6 2-5.1c.9-1.5 2.1-3 3.3-4.5l1.8-2.1c.3-.4.6-.7.9-1 .3-.3.6-.7 1-.9-.8.4-1.5 1.2-2.2 1.8l-2 2c-1.3 1.4-2.5 2.8-3.6 4.4-1.1 1.6-1.6 3.4-2.2 5.2-.6 1.8-1.1 3.6-1.5 5.4-.9 3.7-1.6 7.3-2.3 11-.4 3.4-.6 6.8-.6 10.3h-32.4l3.3-6.3c1.2-2.3 2.4-4.6 3.5-6.9l2.8-2.2c1-.7 2-1.4 3-2l6.1-4.1 6.1-4.1 6.1-4.1 1.2-.8-1.1-.8c-2.8-2.1-5.6-4.2-8.4-6.2l-8.4-6.1c-2.4-1.8-4.6-3.8-6.7-6l.6-.3c.4-.2.8-.5 1.2-.8l2.5-1.5c.6-.3 1.2-.7 1.8-1.1 1 .6 5.9 3.3 10.8 4.8 2.7.8 7.7 2.1 12.1 3.2 4.2 1.1 8.5 2.2 8.9 2.4.6.3 1.6 1.8 2.1 2.7l.1.2.2.1s4.1 1 4.6 10.6c.5 9.1 1.1 26.2 1.2 29.4h-21.2zm22.4 1z" fill="#0c4049" stroke-width="none" opacity="1"></path></g><g id="svga-group-head" transform="matrix(1,0,0,1,0,0)"><g id="svga-group-ears-left-move" transform="matrix(1,0,0,1,0,0)"><g id="svga-group-ears-left"><path id="SvgjsPath6034" d="M68.41 84.17s-2.58-5.02-4.51-7.21-6.82-5.79-7.98-5.54-6.31 14.04-6.82 16.1c-.52 2.06 6.18 8.63 6.82 9.79.64 1.16.52 3.99.39 4.76s5.15 2.83 7.85 2.19c2.71-.65 10.05-9.54 4.25-20.09z" fill="#f0c7b1" stroke-width="none" opacity="1"></path><path id="SvgjsPath6035" d="M68.03 90.6s-5.92-8.11-9.91-10.82c-3.99-2.7-5.67 7.73-5.41 8.76s4.64 6.31 6.31 7.08 7.33-.64 9.01-5.02z" fill="#e1ac8f" stroke-width="none" opacity="1"></path><path id="SvgjsPath6036" d="M49.09 87.02c-.06.22-.14.41-.16.67 0 .24.03.48.11.7.29.87.78 1.62 1.26 2.35.49.73 1.03 1.43 1.58 2.12 1.09 1.38 2.25 2.71 3.34 4.05.13.17.27.34.36.49.09.15.15.33.21.52.11.38.16.8.19 1.22.06.84.05 1.71-.04 2.55l-.04.31c-.02.4.16.52.24.63.21.22.41.34.61.47.41.25.82.44 1.24.61.84.35 1.69.62 2.57.82.88.2 1.78.33 2.72.29.47-.02.95-.08 1.43-.3.26-.08.43-.23.64-.35.21-.12.39-.27.57-.42 2.81-2.39 4.39-5.88 4.78-9.42.13-.89.07-1.78.07-2.67-.12-.88-.17-1.77-.43-2.62-.36-1.73-1.1-3.35-1.9-4.91-.79-1.57-1.65-3.09-2.54-4.6-.45-.76-.92-1.5-1.44-2.22-.53-.72-1.15-1.36-1.79-1.97a28.138 28.138 0 0 0-4.17-3.28c-.38-.24-.76-.48-1.18-.67-.2-.1-.43-.18-.65-.27-.24-.06-.49-.15-.87-.07-.46.23-.48.42-.65.62-.13.2-.25.39-.36.59-.22.39-.42.79-.61 1.19-1.46 3.22-2.59 6.54-3.8 9.83l-.87 2.48-.42 1.26zm.13.69c.01-.17.09-.4.14-.6l.4-1.25c.28-.83.59-1.65.9-2.47.61-1.64 1.28-3.26 1.97-4.86.69-1.6 1.41-3.2 2.19-4.75.19-.39.39-.77.6-1.14.11-.18.22-.36.33-.53.06-.09.12-.15.17-.23.03-.04.08-.07.09-.08.03 0 .08 0 .14.01.09.02.17.04.26.07.18.07.37.14.56.24.37.18.75.39 1.12.6 1.47.89 2.86 1.95 4.2 3.05.66.56 1.3 1.14 1.85 1.8.55.66 1.06 1.38 1.55 2.1.97 1.45 1.83 2.98 2.66 4.52 1.61 3.08 2.43 6.67 1.76 10.07-.3 1.69-.84 3.33-1.65 4.84-.81 1.49-1.83 2.91-3.12 3.96-.16.14-.32.26-.49.36-.17.09-.34.24-.51.28-.31.16-.72.21-1.12.22-.81.03-1.66-.09-2.49-.26-.83-.18-1.65-.42-2.44-.73a9.77 9.77 0 0 1-1.13-.53c-.17-.1-.34-.22-.44-.31l-.03-.03.03-.26c.07-.91.08-1.8-.01-2.7a7.4 7.4 0 0 0-.26-1.36c-.08-.23-.16-.46-.31-.69a5 5 0 0 0-.43-.55c-1.16-1.35-2.37-2.59-3.51-3.92-.57-.66-1.12-1.33-1.64-2.03-.51-.7-1.01-1.43-1.28-2.23-.03-.22-.06-.42-.06-.61z" fill="#e1ac8f" stroke-width="none" opacity="1"></path><path id="SvgjsPath6037" d="M54.5 82.01c.34-.68.71-1.4 1.37-1.89.31-.25.82-.37 1.21-.16.39.19.65.53.87.83.92 1.24 1.7 2.57 2.38 3.94 1.31 2.76 2.4 5.61 3.21 8.56l-.08.03c-1.35-2.74-2.56-5.51-3.83-8.25-.62-1.37-1.2-2.78-1.98-4.06-.19-.33-.41-.61-.7-.78-.29-.16-.64-.09-.93.11-.56.44-.91 1.14-1.21 1.81-.55 1.39-.85 2.89-.94 4.35-.02.36-.02.73.04 1.06.02.17.06.31.11.43.09.16.16.32.26.47.37.63.8 1.24 1.25 1.84.45.6.9 1.2 1.38 1.78l.71.87c.06.07.12.13.18.2.2-.53.34-1.18.48-1.78l.43-2.13c-.6-.94-1.19-1.89-1.75-2.86l.07-.05c.75.89 1.48 1.79 2.19 2.7l.06.07-.01.12A29.5 29.5 0 0 1 59 91.5c-.14.77-.2 1.49-.53 2.33-.04.07-.05.11-.12.2-.03.04-.05.07-.13.13-.03.03-.07.05-.1.07-.06.03-.14.05-.21.05-.13.02-.29-.07-.35-.11l-.07-.06a.769.769 0 0 1-.13-.12c-.15-.15-.28-.29-.41-.43-.26-.29-.51-.58-.76-.88-.48-.6-.96-1.2-1.39-1.84-.44-.63-.86-1.28-1.24-1.97-.1-.17-.18-.36-.27-.54-.09-.24-.14-.46-.16-.67-.04-.42-.01-.82.03-1.21.18-1.57.68-3.04 1.34-4.44z" fill="#c27b55" stroke-width="none" opacity="1"></path></g></g><g id="svga-group-ears-right-move" transform="matrix(1,0,0,1,0,0)"><g id="svga-group-ears-right"><path id="SvgjsPath6038" d="M131.59 84.17s2.58-5.02 4.51-7.21 6.82-5.79 7.98-5.54 6.31 14.04 6.82 16.1c.52 2.06-6.18 8.63-6.82 9.79-.64 1.16-.52 3.99-.39 4.76.13.77-5.15 2.83-7.85 2.19-2.71-.65-10.05-9.54-4.25-20.09z" fill="#f0c7b1" stroke-width="none" opacity="1"></path><path id="SvgjsPath6039" d="M131.97 90.6s5.92-8.11 9.91-10.82c3.99-2.7 5.67 7.73 5.41 8.76-.26 1.03-4.64 6.31-6.31 7.08s-7.33-.64-9.01-5.02z" fill="#e1ac8f" stroke-width="none" opacity="1"></path><path id="SvgjsPath6040" d="m150.49 85.77-.87-2.48c-1.22-3.29-2.34-6.61-3.8-9.83-.19-.4-.39-.8-.61-1.19-.11-.2-.22-.39-.36-.59-.17-.2-.19-.39-.65-.62-.38-.08-.63.01-.87.07-.23.08-.45.16-.65.27-.42.19-.8.43-1.18.67-1.5.97-2.89 2.06-4.17 3.28-.64.61-1.26 1.25-1.79 1.97-.53.71-.99 1.46-1.44 2.22-.89 1.51-1.76 3.04-2.54 4.6-.8 1.56-1.54 3.17-1.9 4.91-.26.85-.3 1.74-.43 2.62 0 .89-.06 1.78.07 2.67.38 3.54 1.96 7.03 4.78 9.42.17.15.36.3.57.42.21.12.38.27.64.35.49.23.96.28 1.43.3.94.04 1.84-.09 2.72-.29.88-.2 1.74-.47 2.57-.82.42-.18.83-.37 1.24-.61.2-.13.4-.25.61-.47.08-.12.26-.23.24-.63l-.04-.31c-.09-.84-.09-1.71-.04-2.55.03-.42.09-.84.19-1.22.06-.19.12-.37.21-.52.1-.15.23-.33.36-.49 1.1-1.34 2.26-2.67 3.34-4.05.55-.69 1.08-1.39 1.58-2.12.49-.74.97-1.48 1.26-2.35.07-.22.11-.45.11-.7-.02-.27-.1-.45-.16-.67l-.42-1.26zm.19 2.53c-.27.8-.77 1.53-1.28 2.23s-1.07 1.37-1.64 2.03c-1.14 1.33-2.36 2.57-3.51 3.92-.14.17-.29.34-.43.55-.14.23-.23.46-.31.69a7.4 7.4 0 0 0-.26 1.36c-.09.9-.09 1.79-.01 2.7l.03.26c-.01.01-.01.02-.03.03-.1.1-.27.22-.44.31-.35.2-.73.38-1.13.53-.79.31-1.61.55-2.44.73-.83.17-1.67.29-2.49.26-.4-.01-.81-.07-1.12-.22-.17-.04-.34-.18-.51-.28-.17-.09-.33-.22-.49-.36-1.29-1.05-2.31-2.47-3.12-3.96-.81-1.5-1.35-3.15-1.65-4.84-.67-3.4.14-6.99 1.76-10.07.83-1.54 1.69-3.07 2.66-4.52.49-.72 1-1.43 1.55-2.1.55-.66 1.19-1.24 1.85-1.8 1.34-1.1 2.73-2.16 4.2-3.05.37-.22.74-.43 1.12-.6.19-.1.37-.17.56-.24.09-.03.17-.04.26-.07.07-.01.11-.01.14-.01.01.01.06.05.09.08.06.08.12.14.17.23.12.16.22.35.33.53.21.37.41.75.6 1.14.78 1.55 1.5 3.15 2.19 4.75.7 1.6 1.36 3.22 1.97 4.86.31.82.62 1.64.9 2.47l.4 1.25c.06.2.13.43.14.6.04.21.01.41-.06.61z" fill="#e1ac8f" stroke-width="none" opacity="1"></path><path id="SvgjsPath6041" d="M145.5 82.01c-.34-.68-.71-1.4-1.37-1.89-.31-.25-.82-.37-1.21-.16-.39.19-.65.53-.87.83-.92 1.24-1.7 2.57-2.38 3.94-1.31 2.76-2.4 5.61-3.21 8.56l.08.03c1.35-2.74 2.56-5.51 3.83-8.25.62-1.37 1.2-2.78 1.98-4.06.19-.33.41-.61.7-.78.29-.16.64-.09.93.11.56.44.91 1.14 1.21 1.81.55 1.39.85 2.89.94 4.35.02.36.01.73-.04 1.06-.02.17-.06.31-.11.43-.09.16-.16.32-.26.47-.37.63-.8 1.24-1.25 1.84-.45.6-.9 1.2-1.38 1.78l-.71.87c-.06.07-.12.13-.18.2-.2-.53-.34-1.18-.48-1.78l-.43-2.13c.6-.94 1.19-1.89 1.75-2.86l-.07-.05c-.75.89-1.48 1.79-2.19 2.7l-.06.07.01.12c.06.76.15 1.52.27 2.28.14.77.2 1.49.53 2.33.04.07.05.11.12.2.03.04.05.07.13.13.03.03.07.05.1.07.06.03.14.05.21.05.13.02.29-.07.35-.11l.07-.06c.05-.04.1-.08.13-.12.15-.15.28-.29.41-.43.26-.29.51-.58.76-.88.48-.6.96-1.2 1.39-1.84.44-.63.86-1.28 1.24-1.97.1-.17.18-.36.27-.54.09-.24.14-.46.16-.67.04-.42.01-.82-.03-1.21-.18-1.57-.68-3.04-1.34-4.44z" fill="#c27b55" stroke-width="none" opacity="1"></path></g></g><g id="svga-group-faceshape-wrap"><g id="svga-group-faceshape-single"><path id="SvgjsPath4814" d="M139.42 105.09c.29-8.36-.32-24.19.98-36.59 0 0 .9-9.5 0-13.6-2.2-10-6.3-16-15.2-20.8-9.3-5-25.2-4.8-25.2-4.8s-15.9-.2-25.2 4.8c-8.8 4.8-13 10.8-15.2 20.8-.9 4 0 13.6 0 13.6 1.3 12.4.52 25.14.91 34.65.49 15.53 4.95 26.5 10.09 33.1 12.7 15.7 29.4 15.35 29.4 15.35s15.46 1.51 28.16-14.19c8.05-9.99 10.85-20.76 11.26-32.32z" fill="#f0c7b1" stroke-width="none" opacity="1" stroke="none"></path><path id="SvgjsPath4815" d="M87.9 137.9s8.6-8.5 21.2-.5c0 0-12.3-3-21.2.5z" fill="#d19271" stroke-width="none" opacity="1" stroke="none"></path><path id="SvgjsPath4816" d="M128.16 137.41c8.06-9.99 10.86-20.76 11.26-32.32.29-8.36-.32-24.19.98-36.59 0 0 .9-9.5 0-13.6-2.2-10-6.3-16-15.2-20.8-9.3-5-25.2-4.8-25.2-4.8s-15.9-.2-25.2 4.8c-8.8 4.8-13 10.8-15.2 20.8-.9 4 0 13.6 0 13.6 1.3 12.4.52 25.14.91 34.65.49 15.53 4.95 26.5 10.09 33.1 12.7 15.7 29.4 15.35 29.4 15.35s15.46 1.51 28.16-14.19zm-5.62 4.69c-2.14 1.75-4.41 3.3-6.84 4.57-2.44 1.24-5 2.22-7.64 2.86-.66.18-1.32.32-1.99.43-.66.14-1.34.21-2.01.3-1.32.14-2.74.21-3.95.11h-.15c-2.6-.07-5.41-.57-8.03-1.33-2.64-.77-5.22-1.78-7.63-3.11-4.86-2.58-9.15-6.21-12.64-10.46-3.35-4.3-5.73-9.43-7.31-14.76-1.57-5.35-2.42-10.92-2.68-16.53-.33-5.63-.25-11.32-.34-17.02-.08-5.7-.31-11.42-.91-17.11-.33-2.83-.55-5.64-.65-8.47-.05-1.41-.06-2.82.01-4.22.04-.69.09-1.39.22-2.06.12-.68.3-1.37.45-2.06.69-2.73 1.64-5.39 2.96-7.86 1.36-2.45 3.09-4.69 5.19-6.55 2.09-1.86 4.49-3.41 6.99-4.67 2.51-1.23 5.24-2.02 7.99-2.63 5.52-1.15 11.21-1.55 16.83-1.46 5.62.17 11.28.81 16.68 2.19 2.7.69 5.33 1.6 7.71 2.91 2.43 1.34 4.72 2.89 6.7 4.76 4.02 3.71 6.38 8.86 7.71 14.27.73 2.59.72 5.42.74 8.24-.02 2.83-.18 5.62-.4 8.49-.68 11.42 0 22.8-.28 34.17-.21 5.61-1.03 11.23-2.84 16.53-1.8 5.31-4.6 10.23-8.11 14.54-.84 1.11-1.85 2.07-2.77 3.11-.45.53-1 .96-1.49 1.44-.49.45-.98.94-1.52 1.38z" fill="#c27b55" stroke-width="none" opacity="1" stroke="none"></path></g></g><g id="svga-group-mouth-single-move" transform="matrix(1,0,0,1,0,0)"><g id="svga-group-mouth-single"><path id="SvgjsPath5657" d="M115.95 118.85c-2.72.91-5.53 1.92-7.88 2.91-2.5 1.06-4.07 2.57-6.76 3.19-2.65.62-5.3-.52-8.01-.37-2.69.14-6.08 2.24-7.87-.41-.95-1.41-2.74.41-1.63 1.37 1.64 1.41 3.91 2.59 5.96 2.73 3.29.23 7.06.3 10.34-.05 6.21-.67 11.72-3.75 17.44-6.41 1.86-1.3 1.02-3.63-1.59-2.96z" fill="#da7c87" stroke-width="none" opacity="1" stroke="none"></path><path id="SvgjsPath5658" d="M107.55 131.3c-1.8-.09-3.6.28-5.4.35-1.81.07-3.62-.07-5.43-.06-.38 0-.47.57-.09.67 3.35.88 7.85 1.04 11.07-.39.3-.13.13-.55-.15-.57z" fill="#e1ac8f" stroke-width="none" opacity="1" stroke="none"></path></g></g><g id="svga-group-eyes-left-move" transform="matrix(1,0,0,1,0,0)"><g id="svga-group-eyes-left"><g id="svga-group-eyesback-left"><path id="SvgjsPath7308" d="M80.2 74.2c7.5 0 13.5 5.8 13.5 13s-6 13-13.5 13-13.5-5.8-13.5-13 6-13 13.5-13z" fill="#ffffff" stroke-width="none" opacity="1"></path></g><g id="svga-group-eyesiriswrapper-left" transform="matrix(1,0,0,1,0,0)"><g id="svga-group-eyesiriscontrol-left" transform="matrix(1,0,0,1,0,0)"><g id="svga-group-eyesiris-left"><path id="SvgjsPath7695" d="M80.2 81.9c2.9 0 5.3 2.4 5.3 5.3s-2.4 5.3-5.3 5.3-5.3-2.4-5.3-5.3 2.4-5.3 5.3-5.3z" fill="#4e60a3" stroke-width="none" opacity="1"></path><path id="SvgjsPath7696" d="M80.2 92.8c-3.1 0-5.6-2.5-5.6-5.6s2.5-5.6 5.6-5.6 5.6 2.5 5.6 5.6c0 3.1-2.5 5.6-5.6 5.6zm0-10.6c-2.8 0-5.1 2.3-5.1 5.1s2.3 5.1 5.1 5.1 5.1-2.3 5.1-5.1c-.1-2.9-2.3-5.1-5.1-5.1z" fill="#253984" stroke-width="none" opacity="1"></path><path id="SvgjsPath7697" d="M80.2 84.3c1.6 0 2.9 1.3 2.9 2.9s-1.3 2.9-2.9 2.9-2.9-1.3-2.9-2.9 1.3-2.9 2.9-2.9z" fill="#000000" stroke-width="none" opacity="1"></path><path id="SvgjsPath7698" d="M78.9 84.3c.5 0 1 .4 1 1s-.4 1-1 1-1-.4-1-1 .5-1 1-1zm3.3 4.6c.2 0 .4.2.4.4s-.2.4-.4.4-.4-.2-.4-.4.2-.4.4-.4z" fill="#ffffff" stroke-width="none" opacity="1"></path></g></g></g><g id="svga-group-eyesfront-left"><path id="SvgjsPath7316" d="M80.2 73.7c-7.8 0-14.1 6.1-14.1 13.6s6.3 13.6 14.1 13.6 14.1-6.1 14.1-13.6S88 73.7 80.2 73.7zm-4.9 20.2c-4.8-1.7-6.4-6.7-7.2-10.1-.9-3.5 13.8-3.5 17.5-.4 3.8 3 5.3 7.3 5.5 9.6.1-.1-11 2.6-15.8.9z" fill="#f0c7b1" stroke-width="none" opacity="1"></path><path id="SvgjsPath7317" d="M91.1 92.5c-.1-.5-.1-1-.3-1.4l-.3-.9c-.5-1.9-1.5-4.5-3-6.2-1.2-1.3-4.1-4.4-9-4.4s-8.2 1.6-8.8 1.9c-.2.1-.5.3-.7.5-.4.2-.8.5-1.1 1-.1.2-.1.3-.1.5-.1.1-.1.2-.1.2h.1c0 .1 0 .3.1.4.1.3.2.6.2.9l.6 1.8c.4 1.2.9 2.3 1.6 3.4.7 1.1 1.5 2 2.5 2.8s2.2 1.3 3.4 1.6c2.5.5 5 .3 7.5 0s4.9-.8 7.3-1.5c.2-.2.2-.4.1-.6zm0 .4c-2.4.4-4.9.8-7.3 1.1-1.2.1-2.5.2-3.7.2-1.2 0-2.5 0-3.7-.2-2.4-.4-4.6-1.9-5.8-4-.7-1-1.2-2.2-1.6-3.3-.2-.6-.4-1.2-.5-1.8-.1-.3-.2-.6-.2-.9 0-.2-.1-.3-.1-.4 1.4-.4 6.6-1.9 10.5-1.9 4.5.1 7.9 3.6 9.3 5.1 1.2 1.1 3 5.1 3.1 6.1z" fill="#000000" stroke-width="none" opacity="1"></path></g></g></g><g id="svga-group-eyes-right-move" transform="matrix(1,0,0,1,0,0)"><g id="svga-group-eyes-right"><g id="svga-group-eyesback-right"><path id="SvgjsPath7309" d="M119.8 74.2c7.5 0 13.5 5.8 13.5 13s-6 13-13.5 13-13.5-5.8-13.5-13 6-13 13.5-13z" fill="#ffffff" stroke-width="none" opacity="1"></path></g><g id="svga-group-eyesiriswrapper-right" transform="matrix(1,0,0,1,0,0)"><g id="svga-group-eyesiriscontrol-right" transform="matrix(1,0,0,1,0,0)"><g id="svga-group-eyesiris-right"><path id="SvgjsPath7699" d="M119.8 82.5c2.6 0 4.7 2.1 4.7 4.7s-2.1 4.7-4.7 4.7-4.7-2.1-4.7-4.7 2.1-4.7 4.7-4.7z" fill="#4e60a3" stroke-width="none" opacity="1"></path><path id="SvgjsPath7700" d="M119.8 92.1c-2.7 0-4.9-2.2-4.9-4.9s2.2-4.9 4.9-4.9 4.9 2.2 4.9 4.9-2.2 4.9-4.9 4.9zm0-9.3c-2.4 0-4.4 2-4.4 4.4s2 4.4 4.4 4.4 4.4-2 4.4-4.4c0-2.4-2-4.4-4.4-4.4z" fill="#253984" stroke-width="none" opacity="1"></path><path id="SvgjsPath7701" d="M119.8 84.7c1.4 0 2.5 1.1 2.5 2.5s-1.1 2.5-2.5 2.5-2.5-1.1-2.5-2.5 1.1-2.5 2.5-2.5z" fill="#000000" stroke-width="none" opacity="1"></path><path id="SvgjsPath7702" d="M118.7 84.7c.5 0 .9.4.9.9s-.4.9-.9.9-.9-.4-.9-.9.4-.9.9-.9zm2.9 4c.2 0 .3.2.3.3s-.2.3-.3.3-.3-.2-.3-.3.1-.3.3-.3z" fill="#ffffff" stroke-width="none" opacity="1"></path></g></g></g><g id="svga-group-eyesfront-right"><path id="SvgjsPath7318" d="M119.8 73.7c-7.8 0-14.1 6.1-14.1 13.6s6.3 13.6 14.1 13.6 14.1-6.1 14.1-13.6-6.3-13.6-14.1-13.6zm5.3 19.5c-4.4 1.8-15 .1-15 .1.1-1.9 1.3-5.8 4.7-8.7 3.4-2.9 17.2-3.8 16.6-.7-.7 3.1-1.9 7.6-6.3 9.3z" fill="#f0c7b1" stroke-width="none" opacity="1"></path><path id="SvgjsPath7321" d="M131.6 84.1s0-1.3-.9-1.7c-.6-.2-4.4-1-9.1-.7-2.6.2-4.6 1.1-6.1 2.1-.3.2-.6.3-.8.5-.9.8-1.7 1.6-2.4 2.6-1.3 1.9-2.3 4.1-2.3 6.4 0 .3.1.8.1.8s.1-.3.2-.7c2.2.4 4.3.7 6.6.8 1.2.1 2.3.1 3.4.1 1.2 0 2.3-.2 3.4-.4s2.2-.8 3.2-1.4c.9-.7 1.7-1.6 2.4-2.5.6-1 1.1-2 1.5-3.1.2-.5.3-1.1.5-1.7l.2-.8c0-.1 0-.1.1-.2v-.1zm-.4.1-.2.8c-.1.6-.3 1.1-.4 1.7-.4 1.1-.8 2.1-1.4 3.1-1.2 1.9-3.3 3.2-5.5 3.6-.6.1-1.1.2-1.7.3-.6 0-1.1.1-1.7.1-1.1.1-2.3.1-3.4 0-2.2-.1-4.4-.2-6.6-.4.4-1.5 1.5-4.6 2.4-5.7 1.2-1.5 4.2-4.5 8.5-4.9 3.6-.3 8.6.8 10 1.2v.2z" fill="#000000" stroke-width="none" opacity="1"></path></g></g></g><g id="svga-group-facehighlight-single"></g><g id="svga-group-eyebrows-left-move" transform="matrix(1,0,0,1,0,0)"><g id="svga-group-eyebrows-left-rotate" transform="matrix(1,1.7453292519943295e-9,-1.7453292519943295e-9,1,1.2391838311032188e-7,-1.3753196981269866e-7)"><g id="svga-group-eyebrows-left"><path id="SvgjsPath8088" d="M70.3 74.6c.2-.48.48-.93.78-1.34.3-.41.62-.79.98-1.13.7-.69 1.48-1.24 2.3-1.69.42-.2.83-.43 1.26-.58.22-.08.42-.18.64-.24l.66-.2c.22-.08.44-.12.66-.17l.67-.15c.22-.04.44-.07.66-.09.22-.01.44-.04.66-.03.88 0 1.75.18 2.58.52.83.32 1.64.74 2.44 1.23 1.6.98 3.1 2.3 4.57 3.79l.11-.1c-.43-1.08-1.03-2.03-1.71-2.91-.68-.88-1.45-1.65-2.31-2.3-.43-.32-.88-.6-1.34-.84a8.7 8.7 0 0 0-1.44-.55c-.98-.27-2-.32-2.98-.24-.25.01-.49.06-.73.1-.24.05-.48.1-.72.17l-.69.21c-.23.07-.46.14-.69.24l-.68.28c-.23.09-.44.22-.66.32-.44.21-.86.49-1.28.75-.82.57-1.59 1.26-2.26 2.06-.34.4-.64.84-.92 1.3-.27.47-.51.96-.68 1.51l.12.08z" fill="#2a232b" stroke-width="none" opacity="1"></path></g></g></g><g id="svga-group-eyebrows-right-move" transform="matrix(1,0,0,1,0,0)"><g id="svga-group-eyebrows-right-rotate" transform="matrix(1,1.7453292519943295e-9,-1.7453292519943295e-9,1,1.2705996255135688e-7,-2.123193070246998e-7)"><g id="svga-group-eyebrows-right"><path id="SvgjsPath8089" d="M130.69 74.97c-.24-.38-.56-.73-.89-1.04-.33-.31-.69-.6-1.07-.86-.75-.51-1.58-.91-2.43-1.22-.43-.14-.86-.29-1.3-.39-.22-.05-.44-.12-.66-.15l-.67-.12c-.22-.05-.45-.07-.67-.09l-.68-.08c-.22-.02-.44-.02-.66-.03-.22.01-.44 0-.66.02-.87.06-1.73.26-2.53.59-.81.32-1.58.71-2.33 1.16-1.51.9-2.9 2.07-4.24 3.39l-.12-.07c.34-.9.86-1.72 1.47-2.48.6-.76 1.31-1.44 2.11-2.02.4-.29.83-.55 1.27-.77.45-.21.91-.41 1.39-.54.96-.28 1.96-.39 2.95-.4.25 0 .49.02.74.03.24.03.49.05.73.09l.71.13c.24.04.47.08.7.15l.7.18c.23.06.46.15.69.22.46.14.9.34 1.34.52.87.41 1.69.92 2.42 1.53.37.3.71.64 1.02 1 .31.36.59.75.8 1.18l-.13.07z" fill="#2a232b" stroke-width="none" opacity="1"></path></g></g></g><g id="svga-group-beardwrap"><g id="svga-group-beard-single-move" transform="matrix(1,0,0,1,0,0)"><g id="svga-group-beard-single"></g></g></g><g id="svga-group-mustache-single-move" transform="matrix(1,0,0,1,0,0)"><g id="svga-group-mustache-single"></g></g><g id="svga-group-nose-single-move" transform="matrix(1,0,0,1,0,0)"><g id="svga-group-nose-single"><path id="SvgjsPath5194" d="M99.1 116.5c.67.12 4.53-3.31 4.53-3.31s2.06 1.59 3.62 1.43c1.56-.16 2.44-1.08 3-1.96.56-.88-.89-3.1-1.78-4.41-.9-1.31-3.54-5.22-4.09-7.02-1.07-3.45-3-4.76-4.92-4.64-1.92.12-4.04 1.52-4.6 3.44-.56 1.92-.72 4.28-1.8 5.76s-3.32 4-3.56 4.72c-.24.72-.11 2.8 1.24 3.56 1.73.97 4.3-.51 4.3-.51s3.18 2.78 4.06 2.94z" fill="#f0c7b1" stroke-width="none" opacity="1" stroke="none"></path><path id="SvgjsPath5195" d="M110.28 110.87c-.42-1.01-1.08-1.86-1.81-2.61.57.88 1.08 1.8 1.39 2.76.15.48.24.97.16 1.42-.05.23-.12.41-.26.6-.13.2-.29.39-.47.54-.69.66-1.7.91-2.68.78-.49-.06-.99-.2-1.46-.39-.45-.16-.86-.39-1.29-.62.38-.56.72-1.15 1.02-1.76-.97.91-1.89 1.83-2.87 2.64-.49.4-.98.8-1.51 1.09-.51.3-1.07.55-1.51.52-.12.01-.21-.02-.31-.04-.09-.05-.17-.06-.3-.16-.24-.15-.49-.36-.74-.55-.5-.39-.99-.82-1.49-1.23-.99-.84-1.99-1.69-3.07-2.48a21.8 21.8 0 0 0 1.68 2.24c-.5.22-1.01.41-1.53.52-.64.12-1.3.15-1.84-.1-1.09-.53-1.72-1.83-1.54-2.94.05-.28.13-.5.3-.74.17-.26.36-.53.56-.79.4-.52.82-1.02 1.26-1.52l.66-.74c.26-.28.46-.56.67-.84.41-.57.77-1.18 1.07-1.83.3-.65.48-1.4.59-2.06.12-.68.22-1.35.3-2.02.15-1.35.27-2.69.31-4.04.1-2.7.03-5.42-.51-8.07.05 2.69-.14 5.35-.4 8-.15 1.32-.29 2.65-.5 3.96-.1.66-.2 1.31-.32 1.96-.12.66-.27 1.22-.54 1.79a9.34 9.34 0 0 1-.94 1.65c-.18.26-.37.53-.57.74-.23.26-.45.51-.66.78-.43.53-.85 1.07-1.24 1.63-.2.28-.39.57-.57.88-.2.33-.34.76-.37 1.14-.13 1.57.85 3.05 2.25 3.55.73.23 1.47.11 2.12-.11.54-.19 1.03-.46 1.49-.77.24.28.47.57.71.84.44.5.91.96 1.41 1.42.25.23.51.44.82.65.13.1.36.22.57.3.22.06.44.12.66.11.88 0 1.55-.38 2.14-.76.58-.41 1.1-.86 1.55-1.37.44-.48.84-.99 1.21-1.53.75.66 1.64 1.25 2.68 1.45.54.12 1.11.12 1.66 0 .55-.14 1.07-.41 1.49-.8.21-.19.39-.42.54-.65.17-.23.29-.54.32-.84.06-.55-.08-1.1-.29-1.6z" fill="#c27b55" stroke-width="none" opacity="1" stroke="none"></path></g></g><g id="svga-group-hair-front"><path id="SvgjsPath9678" d="M62.3 84.7s1.5-2.7 1.7-7.3 0-10.9.2-14.2c.2-3.3 1-8.2 1.5-10 .4-1.8.6-3.5 1.8-5.3 1.2-1.8 2.4-3.6 5.2-4.3 2.8-.7 7.6-3 8.7-4.3 0 0 3-.6 3.7-1 0 0 5.3 2.6 7.2 2.8 1.9.2 8.2.5 12.3-.7s10.1-2.6 12.4-2.2 12.2-1.1 16.6 12.7c0 0 1.1 4.3 1.2 10.4.1 6.1.3 10.1.8 11.9.4 1.8 1.2 5.6 1.2 7.3s.6 2.5.6 2.5 1.7-3.8 2.2-5.8 1.9-11.6 2.1-13.1c.2-1.5.6-6.4.9-8.5.3-2 0-9.5 0-9.5s.1-4.7-.6-6.1c-.7-1.3-1.4-3.5-2.9-4.8 0 0 .1-1.6-.1-2.7s-2.1-5.3-8.2-10.6-13.3-9.4-21.6-9.4c0 0 2.9-.4 4.8-.6 0 0-5.5-.7-8.1-.3l4.3-.6s-7.2-1.4-12.3.1c0 0 .7-1.2 4.2-2.5 0 0-7.8-2.1-15.4 3.1 0 0-5.9-.3-11.7 6.8 0 0-3.7 1.1-4.7 1.8s-6.2 3.1-6.9 11.4c0 0-5 .6-5.5 11l.5 8.7s-1.8 3.6-1.8 7.3 1 6 1.1 7.8c.1 1.8.7 5.2.7 5.2s1.8 4.2 2.1 5.9c.2 1.9 1.8 7.1 1.8 7.1z" fill="#2a232b" stroke-width="none" opacity="1"></path><path id="SvgjsPath9679" d="M143 46.5c.1-1 .1-2 0-3s-.3-2-.6-3-.7-1.9-1.1-2.8c-.4-.8-1-1.6-1.6-2.4.2-1.8-.4-3.5-1.2-5-.8-1.5-1.9-2.9-3.1-4.2-2.3-2.6-5-4.8-7.7-6.9-2.8-2-5.8-3.8-9.1-4.9-1.6-.6-3.3-1-5-1.2-1.7-.2-3.4-.3-5.1-.1 3.4-.3 6.8.5 10 1.7s6.1 3 8.8 5.1c1.4 1 2.6 2.1 3.9 3.3 1.3 1.1 2.5 2.3 3.6 3.6 1.1 1.3 2.1 2.6 2.9 4.1.8 1.4 1.3 3.1 1.1 4.6v.2l.2.2c.6.7 1.1 1.5 1.6 2.3.4.8.8 1.7 1.1 2.6s.5 1.8.5 2.8c.1 1 .1 1.9 0 2.9.2 3.1.2 6.2.1 9.3-.1 3.1-.7 6.1-1.1 9.2-.4 3.1-.8 6.2-1.3 9.2-.2 1.5-.5 3.1-.9 4.5-.5 1.4-1.1 2.9-1.5 4.4.5-1.5 1.1-2.9 1.7-4.3.5-1.5.8-3 1.1-4.6.6-3.1 1.1-6.1 1.5-9.2l.7-4.6c.3-1.5.4-3.1.5-4.7.2-2.9.2-6 0-9.1zm-7.5 1.3c.1-.8.4-1.6.6-2.4.2-.8.5-1.6.8-2.4l.8-2.4.4-1.2.2-.6.1-.3.1-.2v-.1.1-.1c-.1 0 0 0-.1.1l-.1.1-.2.3-.3.5-.6 1.1c-.4.8-.8 1.5-1.1 2.3-.7 1.6-1.3 3.2-1.6 4.9-.2 1.2-.2 2.4-.2 3.6-.1-.5-.3-1-.4-1.5-.5-1.8-1.2-3.6-2-5.3s-1.7-3.4-3-4.9c-2.4-3-5.9-4.9-9.4-6.3-3.5-1.2-6.3-3.8-8.2-6.9-.9-1.5-1.7-3.3-1.8-5.1-.1-.9.1-1.8.4-2.6.4-.8.9-1.5 1.7-2 1.4-1.1 3.3-1.6 5.1-1.5 1.8.1 3.7.7 5.3 1.6-1.6-1-3.4-1.6-5.3-1.8-1.9-.2-3.9.2-5.4 1.4-.8.5-1.5 1.3-1.9 2.2-.4.9-.6 1.9-.5 2.9.1 2 .8 3.8 1.8 5.4 1.9 3.3 5 6 8.5 7.3 3.4 1.4 6.7 3.3 8.9 6.1 1.8 2.2 3 4.8 4 7.5-1.3-3.2-3.6-6.2-6.7-8-1.8-1.1-3.9-1.7-6-1.8h-.4c-3.2-1-6.6-1.6-10-1.7h-2.5l-.8-.1c-.5 0-1.1-.2-1.6-.3-.5-.2-1-.3-1.5-.6-2-.9-3.7-2.3-4.8-4.1-1.2-1.8-2-3.9-2.3-6-.3-2.2-.2-4.4.5-6.4s2.3-3.7 4.1-4.9c1.9-1.1 4.1-1.8 6.3-2.1-2.2.1-4.5.6-6.5 1.7s-3.7 2.8-4.6 5c-.2.5-.4 1.1-.5 1.7-.1.6-.2 1.1-.2 1.7 0 .6-.1 1.1-.1 1.7 0 .6.1 1.1.1 1.7.3 2.3 1.1 4.5 2.3 6.5 1.3 1.9 3.2 3.5 5.3 4.4 2.1 1 4.6 1.1 6.8.9 2.2-.1 4.4.1 6.6.5.6.1 1.3.2 1.9.3-1.5 0-3 0-4.4.2-4.2.5-8.2 2-12.2 2.6-2 .3-4.1.4-6.1.2-2.1-.1-4.1-.6-5.9-1.4-1.8-.8-3.5-2-4.8-3.6-1.3-1.5-2.2-3.4-2.8-5.3s-.8-4-.7-6c.1-2 .3-4.1 1.1-6 1.6-3.7 4.9-6.6 8.6-8.2 3.4-1.5 7.3-2 10.9-1.4-.5.2-1 .3-1.5.6-.4.2-.8.4-1.2.7-.4.3-.7.6-.9 1.1l-.1.4.4-.1c1-.4 2.1-.6 3.1-.7 1.1-.1 2.1-.2 3.2-.2s2.2.1 3.2.1c1.1.1 2.2.2 3.2.4-1.1-.2-2.1-.4-3.2-.5s-2.2-.2-3.2-.2c-1.1 0-2.2 0-3.3.1-.9.1-1.8.2-2.7.5.2-.2.3-.4.5-.5.3-.2.7-.4 1.1-.6.8-.3 1.6-.6 2.5-.8l1.1-.2-1.1-.3c-4-1-8.5-.6-12.4 1-1.3.5-2.6 1.2-3.7 2.1-1.5.2-2.9.6-4.3 1.2-1.7.7-3.3 1.7-4.7 2.8-.4.3-.7.6-1.1.9-.3.3-.6.7-.9 1-.3.4-.5.8-.8 1.1-3.1.6-6.1 2.2-8.3 4.6-1.3 1.5-2.1 3.3-2.7 5.2-.3 1.2-.5 2.4-.5 3.6-1.5.5-2.8 1.6-3.6 3-.9 1.5-1.3 3.3-1.5 5-.4 3.3-.4 6.7 0 10.1v.2c-.9 2.7-1.6 5.5-1.8 8.4V61c.1.7.2 1.5.4 2.2.3 1.4.5 2.8.7 4.2.2 1.4.4 2.8.8 4.2.2.7.4 1.4.7 2.1.3.6.5 1.3.8 2 .9 2.7 1.7 5.4 2.4 8.2-.5-2.8-1-5.6-1.9-8.4-.2-.7-.4-1.4-.7-2.1-.3-.7-.5-1.3-.6-2-.3-1.4-.4-2.8-.6-4.2-.2-1.4-.4-2.8-.7-4.2-.2-.7-.3-1.4-.3-2v-2c.1-2.2.6-4.4 1.2-6.5.7 2.9 2.2 8.2 5.7 12.4 0 1.1.1 2.2 0 3.4 0 1.9-.1 3.8-.1 5.6 0 1.9-.1 3.8-.3 5.6-.1.9-.1 1.9-.3 2.8-.2.9-.2 1.9-.7 2.7.5-.8.7-1.8.9-2.7s.4-1.9.5-2.8c.2-1.9.4-3.8.6-5.6.2-1.9.2-3.8.3-5.7.1-1.9 0-3.8 0-5.6.1-3.7.6-7.5 1.5-11.1.4-1.8 1-3.6 2.2-5 1.2-1.4 2.8-2.4 4.6-3-1.8.4-3.6 1.4-5 2.7-.7.7-1.2 1.5-1.6 2.4-.4.9-.7 1.8-1 2.7-.6 1.8-.9 3.7-1.2 5.6-.3 1.9-.5 3.8-.6 5.7v.6c-4.1-5.7-5.1-13-5.1-13.1h-.1c-.2-1.6-.3-3.2-.4-4.8-.1-1.7 0-3.4.1-5.2.1-1.7.4-3.4 1.2-4.9.7-1.3 1.8-2.5 3.3-3.1 0 .7 0 1.5.1 2.2.3 1.9 1 3.9 2.4 5.3 1.4 1.5 3.4 2.2 5.3 2.4 3.9.6 7.9-.6 10.8-3-1.6 1-3.3 1.8-5.2 2.2-1.8.4-3.7.4-5.5.1-1.8-.4-3.6-1-4.8-2.3-1.2-1.3-1.9-3.1-2.1-4.9-.5-3.6.5-7.5 2.7-10.4 1.2-1.4 2.7-2.6 4.3-3.5 1-.6 2.2-1 3.3-1.4-.2.4-.3.7-.5 1.1-.7 1.7-1.1 3.6-1.2 5.4-.1 1.9 0 3.7.4 5.5.4 1.8 1 3.6 2.2 5.1.6.7 1.4 1.4 2.2 1.8.8.4 1.7.7 2.6.9 1.8.3 3.6.2 5.2-.6 1 .8 2.2 1.5 3.4 2.1 2 .8 4.1 1.3 6.2 1.4 2.1.2 4.2.1 6.3-.2 4.2-.7 8.1-2.2 12.2-2.8 2.6-.3 5.3-.5 7.8-.1l1.2.3c-.2-.1-.4-.1-.6-.2 1.3.3 2.5.7 3.6 1.3 3.5 1.9 6.1 5.4 7.5 9.2.1.2.2.5.2.7.5 1.8.9 3.6 1.1 5.4 0 .2 0 .3.1.5 0 .6-.1 1.3-.2 1.9.1-.3.2-.5.3-.8.1 1.3 0 2.6 0 3.9 0 3.7.4 7.5.9 11.2.3 1.8.7 3.7 1.1 5.5.4 1.8.2 3.7.1 5.5.1-.9.3-1.8.4-2.8.1-.9 0-1.9-.1-2.8-.1-.9-.3-1.8-.5-2.8s-.3-1.8-.4-2.8c-.4-3.7-.7-7.4-.6-11.1.1-1.8.1-3.8-.1-5.6 0-.3-.1-.7-.1-1 .1-.5.1-1 .2-1.5.3-1.3.3-3 .6-4.6zM80 38.4c-1.7-.5-3.4-1.3-4.3-2.6-1-1.4-1.5-3.1-1.9-4.9-.3-1.7-.4-3.5-.3-5.3.2-2.4.8-4.8 2-6.9.2 0 .5-.1.8-.1-.2 0-.5 0-.7.1.6-.9 1.2-1.7 2.1-2.4 1.3-1.2 2.8-2.2 4.4-3 1.2-.6 2.6-1.1 3.9-1.5-2.2 1.6-4 3.8-5.2 6.4-.9 2-1.1 4.2-1.2 6.3-.1 2.1.2 4.3.7 6.3s1.6 4 3 5.7c.5.6 1.1 1.2 1.8 1.7-1.7.6-3.5.6-5.1.2z" fill="#1b141c" stroke-width="none" opacity="1"></path></g><g id="svga-group-glasses-single-move" transform="matrix(1,0,0,1,0,0)"><g id="svga-group-glasses-single"></g></g></g></g></g><rect id="svga-credit-rect" width="200" height="15" x="0" y="185" fill="#ecf0f1" opacity="0.5" style="display: none;"></rect><text id="svga-credit-text" font-family="Avenir Next, Roboto, Helvetica, Arial, sans-serif" font-size="10px" text-anchor="start" font-weight="400" size="10px" anchor="start" weight="400" fill="#333333" x="33.40447998046875" y="182.60824704170227" style="display: none;"><tspan id="SvgjsTspan4495" dy="13" x="33.40447998046875">Created on AvatarMaker.com</tspan></text></g><defs id="SvgjsDefs4442"><linearGradient id="SvgjsLinearGradient5158" x1="99.7642" y1="100.53" x2="99.7642" y2="113.2523" gradientUnits="userSpaceOnUse" class="svga-on-canvas-nose-gradient-single-0-null"><stop id="SvgjsStop5159" stop-opacity="0" stop-color="#f0c7b1" offset="0" ></stop><stop id="SvgjsStop5160" stop-opacity="1" stop-color="#e8b9a0" offset="1" ></stop></linearGradient><linearGradient id="SvgjsLinearGradient9167" x1="80.8483" y1="78.7842" x2="80.8483" y2="101.3287" gradientUnits="userSpaceOnUse" class="svga-on-canvas-glasses-gradient-single-0-null"><stop id="SvgjsStop9168" stop-opacity="1" stop-color="#9bc2cf" offset="0" ></stop><stop id="SvgjsStop9169" stop-opacity="0" stop-color="#6086c4" offset="1" ></stop></linearGradient><linearGradient id="SvgjsLinearGradient9171" x1="-19.4949" y1="78.7842" x2="-19.4949" y2="101.3287" gradientTransform="matrix(-1 0 0 1 100 0)" gradientUnits="userSpaceOnUse" class="svga-on-canvas-glasses-gradient-single-1-null"><stop id="SvgjsStop9172" stop-opacity="1" stop-color="#9bc2cf" offset="0" ></stop><stop id="SvgjsStop9173" stop-opacity="0" stop-color="#6086c4" offset="1" ></stop></linearGradient></defs></svg>